# xmcd
#
# Track frame offsets:
#	150
#	19025
#	47662
#
# Disc length: 924 seconds
# Revision: 0
# Processed by: cddbd v1.5.2PL0 Copyright (c) Steve Scherf et al.
# Submitted via: dBpowerAMP V12.0
#
DISCID=1a039a03
DTITLE=Eurogroove with Dannii Minogue - Boogie Woogie
DYEAR=1995
DGENRE=House
TTITLE0=Boogie Woogie [Original Mix]
TTITLE1=Boogie Woogie [Extended Mix]
TTITLE2=Boogie Woogie [Club Mix]
EXTD=
EXTT0=
EXTT1=
EXTT2=
PLAYORDER=
